
          <svg xmlns="http://www.w3.org/2000/svg" width="800" height="400" viewBox="0 0 800 400">
            <!-- https://grabient.com/HQNgHATANMEQLDeYCsUC0AGYBmAjGDJhIVrAJwhLzlFiYwoDsDEwlTUbOEOUewTCkxA?style=angularGradient&steps=10&angle=20 -->
        
          <defs>
            <clipPath id="squareClip">
              <rect x="0" y="0" width="800" height="400" />
            </clipPath>
          </defs>
          <g clip-path="url(#squareClip)">
        <path d="
              M 400.000,200.000
              L 552.956,-220.244
              A 447.214,447.214 0 0 1 585.457,-206.947
              Z
            " fill="rgb(95, 54, 52)" fill-opacity="1.000" /><path d="
              M 400.000,200.000
              L 585.457,-206.947
              A 447.214,447.214 0 0 1 616.814,-191.142
              Z
            " fill="rgb(94, 54, 54)" fill-opacity="1.000" /><path d="
              M 400.000,200.000
              L 616.814,-191.142
              A 447.214,447.214 0 0 1 646.834,-172.925
              Z
            " fill="rgb(94, 54, 56)" fill-opacity="1.000" /><path d="
              M 400.000,200.000
              L 646.834,-172.925
              A 447.214,447.214 0 0 1 675.332,-152.409
              Z
            " fill="rgb(94, 54, 57)" fill-opacity="1.000" /><path d="
              M 400.000,200.000
              L 675.332,-152.409
              A 447.214,447.214 0 0 1 702.133,-129.721
              Z
            " fill="rgb(94, 54, 59)" fill-opacity="1.000" /><path d="
              M 400.000,200.000
              L 702.133,-129.721
              A 447.214,447.214 0 0 1 727.072,-104.999
              Z
            " fill="rgb(94, 54, 61)" fill-opacity="1.000" /><path d="
              M 400.000,200.000
              L 727.072,-104.999
              A 447.214,447.214 0 0 1 749.993,-78.397
              Z
            " fill="rgb(94, 54, 63)" fill-opacity="1.000" /><path d="
              M 400.000,200.000
              L 749.993,-78.397
              A 447.214,447.214 0 0 1 770.757,-50.079
              Z
            " fill="rgb(93, 54, 65)" fill-opacity="1.000" /><path d="
              M 400.000,200.000
              L 770.757,-50.079
              A 447.214,447.214 0 0 1 789.235,-20.219
              Z
            " fill="rgb(93, 54, 67)" fill-opacity="1.000" /><path d="
              M 400.000,200.000
              L 789.235,-20.219
              A 447.214,447.214 0 0 1 805.314,10.999
              Z
            " fill="rgb(94, 54, 69)" fill-opacity="1.000" /><path d="
              M 400.000,200.000
              L 805.314,10.999
              A 447.214,447.214 0 0 1 818.893,43.382
              Z
            " fill="rgb(95, 54, 72)" fill-opacity="1.000" /><path d="
              M 400.000,200.000
              L 818.893,43.382
              A 447.214,447.214 0 0 1 829.890,76.731
              Z
            " fill="rgb(96, 53, 75)" fill-opacity="1.000" /><path d="
              M 400.000,200.000
              L 829.890,76.731
              A 447.214,447.214 0 0 1 838.236,110.840
              Z
            " fill="rgb(97, 53, 78)" fill-opacity="1.000" /><path d="
              M 400.000,200.000
              L 838.236,110.840
              A 447.214,447.214 0 0 1 843.881,145.498
              Z
            " fill="rgb(97, 53, 81)" fill-opacity="1.000" /><path d="
              M 400.000,200.000
              L 843.881,145.498
              A 447.214,447.214 0 0 1 846.788,180.493
              Z
            " fill="rgb(98, 53, 84)" fill-opacity="1.000" /><path d="
              M 400.000,200.000
              L 846.788,180.493
              A 447.214,447.214 0 0 1 846.942,215.608
              Z
            " fill="rgb(99, 53, 87)" fill-opacity="1.000" /><path d="
              M 400.000,200.000
              L 846.942,215.608
              A 447.214,447.214 0 0 1 844.339,250.626
              Z
            " fill="rgb(100, 53, 90)" fill-opacity="1.000" /><path d="
              M 400.000,200.000
              L 844.339,250.626
              A 447.214,447.214 0 0 1 838.997,285.332
              Z
            " fill="rgb(102, 53, 94)" fill-opacity="1.000" /><path d="
              M 400.000,200.000
              L 838.997,285.332
              A 447.214,447.214 0 0 1 830.949,319.513
              Z
            " fill="rgb(103, 53, 97)" fill-opacity="1.000" /><path d="
              M 400.000,200.000
              L 830.949,319.513
              A 447.214,447.214 0 0 1 820.244,352.956
              Z
            " fill="rgb(105, 53, 101)" fill-opacity="1.000" /><path d="
              M 400.000,200.000
              L 820.244,352.956
              A 447.214,447.214 0 0 1 806.947,385.457
              Z
            " fill="rgb(107, 53, 105)" fill-opacity="1.000" /><path d="
              M 400.000,200.000
              L 806.947,385.457
              A 447.214,447.214 0 0 1 791.142,416.814
              Z
            " fill="rgb(108, 53, 108)" fill-opacity="1.000" /><path d="
              M 400.000,200.000
              L 791.142,416.814
              A 447.214,447.214 0 0 1 772.925,446.834
              Z
            " fill="rgb(110, 53, 112)" fill-opacity="1.000" /><path d="
              M 400.000,200.000
              L 772.925,446.834
              A 447.214,447.214 0 0 1 752.409,475.332
              Z
            " fill="rgb(112, 53, 115)" fill-opacity="1.000" /><path d="
              M 400.000,200.000
              L 752.409,475.332
              A 447.214,447.214 0 0 1 729.721,502.133
              Z
            " fill="rgb(114, 53, 119)" fill-opacity="1.000" /><path d="
              M 400.000,200.000
              L 729.721,502.133
              A 447.214,447.214 0 0 1 704.999,527.072
              Z
            " fill="rgb(116, 53, 123)" fill-opacity="1.000" /><path d="
              M 400.000,200.000
              L 704.999,527.072
              A 447.214,447.214 0 0 1 678.397,549.993
              Z
            " fill="rgb(119, 53, 126)" fill-opacity="1.000" /><path d="
              M 400.000,200.000
              L 678.397,549.993
              A 447.214,447.214 0 0 1 650.079,570.757
              Z
            " fill="rgb(121, 53, 130)" fill-opacity="1.000" /><path d="
              M 400.000,200.000
              L 650.079,570.757
              A 447.214,447.214 0 0 1 620.219,589.235
              Z
            " fill="rgb(123, 53, 134)" fill-opacity="1.000" /><path d="
              M 400.000,200.000
              L 620.219,589.235
              A 447.214,447.214 0 0 1 589.001,605.314
              Z
            " fill="rgb(126, 53, 137)" fill-opacity="1.000" /><path d="
              M 400.000,200.000
              L 589.001,605.314
              A 447.214,447.214 0 0 1 556.618,618.893
              Z
            " fill="rgb(128, 53, 141)" fill-opacity="1.000" /><path d="
              M 400.000,200.000
              L 556.618,618.893
              A 447.214,447.214 0 0 1 523.269,629.890
              Z
            " fill="rgb(131, 53, 145)" fill-opacity="1.000" /><path d="
              M 400.000,200.000
              L 523.269,629.890
              A 447.214,447.214 0 0 1 489.160,638.236
              Z
            " fill="rgb(133, 53, 148)" fill-opacity="1.000" /><path d="
              M 400.000,200.000
              L 489.160,638.236
              A 447.214,447.214 0 0 1 454.502,643.881
              Z
            " fill="rgb(136, 53, 152)" fill-opacity="1.000" /><path d="
              M 400.000,200.000
              L 454.502,643.881
              A 447.214,447.214 0 0 1 419.507,646.788
              Z
            " fill="rgb(139, 53, 155)" fill-opacity="1.000" /><path d="
              M 400.000,200.000
              L 419.507,646.788
              A 447.214,447.214 0 0 1 384.392,646.942
              Z
            " fill="rgb(142, 53, 158)" fill-opacity="1.000" /><path d="
              M 400.000,200.000
              L 384.392,646.942
              A 447.214,447.214 0 0 1 349.374,644.339
              Z
            " fill="rgb(145, 52, 161)" fill-opacity="1.000" /><path d="
              M 400.000,200.000
              L 349.374,644.339
              A 447.214,447.214 0 0 1 314.668,638.997
              Z
            " fill="rgb(148, 52, 165)" fill-opacity="1.000" /><path d="
              M 400.000,200.000
              L 314.668,638.997
              A 447.214,447.214 0 0 1 280.487,630.949
              Z
            " fill="rgb(151, 52, 168)" fill-opacity="1.000" /><path d="
              M 400.000,200.000
              L 280.487,630.949
              A 447.214,447.214 0 0 1 247.044,620.244
              Z
            " fill="rgb(154, 52, 171)" fill-opacity="1.000" /><path d="
              M 400.000,200.000
              L 247.044,620.244
              A 447.214,447.214 0 0 1 214.543,606.947
              Z
            " fill="rgb(157, 52, 174)" fill-opacity="1.000" /><path d="
              M 400.000,200.000
              L 214.543,606.947
              A 447.214,447.214 0 0 1 183.186,591.142
              Z
            " fill="rgb(160, 52, 176)" fill-opacity="1.000" /><path d="
              M 400.000,200.000
              L 183.186,591.142
              A 447.214,447.214 0 0 1 153.166,572.925
              Z
            " fill="rgb(163, 52, 179)" fill-opacity="1.000" /><path d="
              M 400.000,200.000
              L 153.166,572.925
              A 447.214,447.214 0 0 1 124.668,552.409
              Z
            " fill="rgb(166, 52, 181)" fill-opacity="1.000" /><path d="
              M 400.000,200.000
              L 124.668,552.409
              A 447.214,447.214 0 0 1 97.867,529.721
              Z
            " fill="rgb(170, 52, 183)" fill-opacity="1.000" /><path d="
              M 400.000,200.000
              L 97.867,529.721
              A 447.214,447.214 0 0 1 72.928,504.999
              Z
            " fill="rgb(173, 52, 185)" fill-opacity="1.000" /><path d="
              M 400.000,200.000
              L 72.928,504.999
              A 447.214,447.214 0 0 1 50.007,478.397
              Z
            " fill="rgb(176, 52, 188)" fill-opacity="1.000" /><path d="
              M 400.000,200.000
              L 50.007,478.397
              A 447.214,447.214 0 0 1 29.243,450.079
              Z
            " fill="rgb(179, 52, 190)" fill-opacity="1.000" /><path d="
              M 400.000,200.000
              L 29.243,450.079
              A 447.214,447.214 0 0 1 10.765,420.219
              Z
            " fill="rgb(182, 52, 192)" fill-opacity="1.000" /><path d="
              M 400.000,200.000
              L 10.765,420.219
              A 447.214,447.214 0 0 1 -5.314,389.001
              Z
            " fill="rgb(185, 52, 193)" fill-opacity="1.000" /><path d="
              M 400.000,200.000
              L -5.314,389.001
              A 447.214,447.214 0 0 1 -18.893,356.618
              Z
            " fill="rgb(188, 52, 194)" fill-opacity="1.000" /><path d="
              M 400.000,200.000
              L -18.893,356.618
              A 447.214,447.214 0 0 1 -29.890,323.269
              Z
            " fill="rgb(191, 52, 195)" fill-opacity="1.000" /><path d="
              M 400.000,200.000
              L -29.890,323.269
              A 447.214,447.214 0 0 1 -38.236,289.160
              Z
            " fill="rgb(194, 52, 196)" fill-opacity="1.000" /><path d="
              M 400.000,200.000
              L -38.236,289.160
              A 447.214,447.214 0 0 1 -43.881,254.502
              Z
            " fill="rgb(198, 52, 196)" fill-opacity="1.000" /><path d="
              M 400.000,200.000
              L -43.881,254.502
              A 447.214,447.214 0 0 1 -46.788,219.507
              Z
            " fill="rgb(201, 52, 197)" fill-opacity="1.000" /><path d="
              M 400.000,200.000
              L -46.788,219.507
              A 447.214,447.214 0 0 1 -46.942,184.392
              Z
            " fill="rgb(204, 52, 198)" fill-opacity="1.000" /><path d="
              M 400.000,200.000
              L -46.942,184.392
              A 447.214,447.214 0 0 1 -44.339,149.374
              Z
            " fill="rgb(207, 52, 199)" fill-opacity="1.000" /><path d="
              M 400.000,200.000
              L -44.339,149.374
              A 447.214,447.214 0 0 1 -38.997,114.668
              Z
            " fill="rgb(209, 52, 199)" fill-opacity="1.000" /><path d="
              M 400.000,200.000
              L -38.997,114.668
              A 447.214,447.214 0 0 1 -30.949,80.487
              Z
            " fill="rgb(212, 52, 198)" fill-opacity="1.000" /><path d="
              M 400.000,200.000
              L -30.949,80.487
              A 447.214,447.214 0 0 1 -20.244,47.044
              Z
            " fill="rgb(215, 52, 197)" fill-opacity="1.000" /><path d="
              M 400.000,200.000
              L -20.244,47.044
              A 447.214,447.214 0 0 1 -6.947,14.543
              Z
            " fill="rgb(217, 52, 197)" fill-opacity="1.000" /><path d="
              M 400.000,200.000
              L -6.947,14.543
              A 447.214,447.214 0 0 1 8.858,-16.814
              Z
            " fill="rgb(220, 52, 196)" fill-opacity="1.000" /><path d="
              M 400.000,200.000
              L 8.858,-16.814
              A 447.214,447.214 0 0 1 27.075,-46.834
              Z
            " fill="rgb(223, 52, 196)" fill-opacity="1.000" /><path d="
              M 400.000,200.000
              L 27.075,-46.834
              A 447.214,447.214 0 0 1 47.591,-75.332
              Z
            " fill="rgb(225, 52, 195)" fill-opacity="1.000" /><path d="
              M 400.000,200.000
              L 47.591,-75.332
              A 447.214,447.214 0 0 1 70.279,-102.133
              Z
            " fill="rgb(228, 52, 194)" fill-opacity="1.000" /><path d="
              M 400.000,200.000
              L 70.279,-102.133
              A 447.214,447.214 0 0 1 95.001,-127.072
              Z
            " fill="rgb(230, 51, 192)" fill-opacity="1.000" /><path d="
              M 400.000,200.000
              L 95.001,-127.072
              A 447.214,447.214 0 0 1 121.603,-149.993
              Z
            " fill="rgb(232, 51, 190)" fill-opacity="1.000" /><path d="
              M 400.000,200.000
              L 121.603,-149.993
              A 447.214,447.214 0 0 1 149.921,-170.757
              Z
            " fill="rgb(234, 51, 189)" fill-opacity="1.000" /><path d="
              M 400.000,200.000
              L 149.921,-170.757
              A 447.214,447.214 0 0 1 179.781,-189.235
              Z
            " fill="rgb(236, 51, 187)" fill-opacity="1.000" /><path d="
              M 400.000,200.000
              L 179.781,-189.235
              A 447.214,447.214 0 0 1 210.999,-205.314
              Z
            " fill="rgb(238, 51, 185)" fill-opacity="1.000" /><path d="
              M 400.000,200.000
              L 210.999,-205.314
              A 447.214,447.214 0 0 1 243.382,-218.893
              Z
            " fill="rgb(240, 51, 183)" fill-opacity="1.000" /><path d="
              M 400.000,200.000
              L 243.382,-218.893
              A 447.214,447.214 0 0 1 276.731,-229.890
              Z
            " fill="rgb(242, 51, 181)" fill-opacity="1.000" /><path d="
              M 400.000,200.000
              L 276.731,-229.890
              A 447.214,447.214 0 0 1 310.840,-238.236
              Z
            " fill="rgb(244, 51, 179)" fill-opacity="1.000" /><path d="
              M 400.000,200.000
              L 310.840,-238.236
              A 447.214,447.214 0 0 1 345.498,-243.881
              Z
            " fill="rgb(225, 52, 163)" fill-opacity="1.000" /><path d="
              M 400.000,200.000
              L 345.498,-243.881
              A 447.214,447.214 0 0 1 380.493,-246.788
              Z
            " fill="rgb(207, 52, 147)" fill-opacity="1.000" /><path d="
              M 400.000,200.000
              L 380.493,-246.788
              A 447.214,447.214 0 0 1 415.608,-246.942
              Z
            " fill="rgb(188, 52, 131)" fill-opacity="1.000" /><path d="
              M 400.000,200.000
              L 415.608,-246.942
              A 447.214,447.214 0 0 1 450.626,-244.339
              Z
            " fill="rgb(169, 53, 115)" fill-opacity="1.000" /><path d="
              M 400.000,200.000
              L 450.626,-244.339
              A 447.214,447.214 0 0 1 485.332,-238.997
              Z
            " fill="rgb(151, 53, 99)" fill-opacity="1.000" /><path d="
              M 400.000,200.000
              L 485.332,-238.997
              A 447.214,447.214 0 0 1 519.513,-230.949
              Z
            " fill="rgb(132, 53, 84)" fill-opacity="1.000" /><path d="
              M 400.000,200.000
              L 519.513,-230.949
              A 447.214,447.214 0 0 1 552.956,-220.244
              Z
            " fill="rgb(113, 54, 68)" fill-opacity="1.000" />
          </g>
        </svg>
        